# xmcd
#
# Track frame offsets:
#	150
#	12733
#	23877
#	36406
#	51412
#	65281
#	78005
#	94191
#	106940
#	117682
#
# Disc length: 1747 seconds
#
# Revision: 0
# Processed by: cddbd v1.4PL0 Copyright (c) Steve Scherf et al.
# Submitted via: dBpowerAMP V4.0
#
DISCID=8406d10a
DTITLE=Les temps ont changé - Lionel Et Pierre
DYEAR=1900
DGENRE=
TTITLE0=Les temps ont changé
TTITLE1=Petite étoile
TTITLE2=Il mundo
TTITLE3=Sixty's memories
TTITLE4=Chante
TTITLE5=Les festivals
TTITLE6=Detroit city
TTITLE7=Amazing grace
TTITLE8=Marin
TTITLE9=Au revoir
EXTD=
EXTT0=
EXTT1=
EXTT2=
EXTT3=
EXTT4=
EXTT5=
EXTT6=
EXTT7=
EXTT8=
EXTT9=
PLAYORDER=
